<?xml version="1.0" encoding="UTF-8"?>
<svg width="70px" height="64px" viewBox="0 0 70 64" version="1.1" xmlns="http://www.w3.org/2000/svg" xmlns:xlink="http://www.w3.org/1999/xlink">
    <!-- Generator: Sketch 64 (93537) - https://sketch.com -->
    <title>mk-logo</title>
    <desc>Created with Sketch.</desc>
    <defs>
        <polygon id="path-1" points="4.22342556e-05 0.248973107 69.9037712 0.248973107 69.9037712 63.7377049 4.22342556e-05 63.7377049"></polygon>
        <linearGradient x1="50%" y1="88.6424595%" x2="25.1661276%" y2="39.619342%" id="linearGradient-3">
            <stop stop-color="#000000" offset="0%"></stop>
            <stop stop-color="#FFFFFF" offset="100%"></stop>
        </linearGradient>
        <path d="M0.35576779,3.24878689 C0.0259550562,4.60983607 0.513333333,5.73639344 1.25318352,6.78190164 L1.25318352,6.78190164 C1.25318352,6.78190164 4.2388015,10.7388852 6.51838951,8.28695082 L6.51838951,8.28695082 C7.69187266,7.02478689 8.40419476,5.5837377 8.24007491,3.79304918 L8.24007491,3.79304918 C8.05996255,1.82793443 6.5894382,0.342557377 4.67636704,0.187278689 L4.67636704,0.187278689 C4.54029963,0.176262295 4.40580524,0.170754098 4.27367041,0.170754098 L4.27367041,0.170754098 C2.31970037,0.170754098 0.814044944,1.35790164 0.35576779,3.24878689" id="path-4"></path>
    </defs>
    <g id="Page-1" stroke="none" stroke-width="1" fill="none" fill-rule="evenodd">
        <g id="Desktop-HD" transform="translate(-19.000000, -20.000000)">
            <g id="mk-logo" transform="translate(19.000000, 20.000000)">
                <g id="Group-12">
                    <g id="Group-3" transform="translate(0.000000, 0.013377)">
                        <mask id="mask-2" fill="white">
                            <use xlink:href="#path-1"></use>
                        </mask>
                        <g id="Clip-2"></g>
                        <path d="M65.460985,18.8153705 C57.0633446,8.18822295 46.7631199,0.98664918 32.780161,0.290255738 C17.4357416,-0.474072131 4.32581648,9.44382951 0.967127341,24.316223 C-2.80448315,41.0155016 4.66847566,55.6030426 19.671809,61.6885508 C29.7869401,65.7918951 39.0185506,63.2098623 47.9093371,58.5494033 C47.9093371,58.5494033 81.7751798,39.4598295 65.460985,18.8153705" id="Fill-1" fill="#1D1D1B" mask="url(#mask-2)"></path>
                    </g>
                    <g id="Group-6" transform="translate(51.123596, 23.619934)">
                        <mask id="mask-5" fill="white">
                            <use xlink:href="#path-4"></use>
                        </mask>
                        <use id="Clip-5" fill="url(#linearGradient-3)" xlink:href="#path-4"></use>
                    </g>
                    <g id="Group-11" transform="translate(7.340824, 14.701902)" fill="#FEFEFE">
                        <path d="M37.5514082,0.0792131148 C37.3906966,0.164196721 31.4954906,22.5001967 31.4847416,22.5327213 C31.3143296,23.0573115 30.9672135,23.8045902 30.6874757,24.2927213 C30.4520449,24.7037377 30.1993109,25.1331148 29.8563895,25.4481311 C29.2562772,25.9994754 28.6362397,25.7652459 28.5903596,24.9647213 C28.5586367,24.4104918 28.659573,23.8347541 28.7854157,23.2878689 C29.1965019,21.504 29.6571386,19.7314098 30.0766142,17.9491148 C30.3880749,16.6247869 30.5679251,15.3001967 30.1927566,13.9417705 C29.5753408,11.7078033 27.8706966,10.4173115 25.5488989,10.5363934 C23.5812959,10.637377 22.1126067,11.6768525 20.886427,13.1249836 C20.5621199,13.5076721 20.2721573,13.92 19.8964644,14.4099672 C19.7134682,13.9396721 19.6091236,13.6545574 19.4929813,13.3744262 C18.6833933,11.4247869 17.0568764,10.4146885 14.9542547,10.535082 C13.4795356,10.619541 12.2848165,11.3009836 11.2471386,12.2843279 C10.6850412,12.8170492 10.1853408,13.4153443 9.49792509,14.1558033 C9.71238202,12.9489836 9.88777528,11.9617049 10.0736554,10.9172459 L4.43249438,10.9172459 L3.26425468,15.6094426 C2.23024719,20.0020984 1.21642697,24.3074098 0.173505618,28.7375738 L6.47901124,28.7375738 C6.79702622,27.4594098 7.09957303,26.2386885 7.4044794,25.0187541 C8.00695131,22.6082623 8.59788764,20.194623 9.22054682,17.7896393 C9.45519101,16.8834098 9.89826217,16.0792131 10.7193858,15.5606557 C12.0069139,14.7483279 13.3602472,15.4308197 13.4402097,16.9429508 C13.460397,17.3256393 13.3785993,17.7224918 13.2905094,18.1001967 C12.7858277,20.2659672 12.262794,22.4272787 11.7507715,24.5912131 C11.4327566,25.9349508 11.1231311,27.2805246 10.7825693,28.7415082 L17.0762772,28.7415082 C17.4304719,27.2881311 17.7762772,25.8982295 18.1071386,24.5043934 C18.5709213,22.5537049 18.9665393,20.5846557 19.5050412,18.6549508 C19.7693109,17.7083279 20.1963895,16.7735082 20.7233558,15.9433443 C21.1763895,15.2296393 22.1453783,15.0678033 22.8385618,15.3678689 C23.5902097,15.693377 23.8009963,16.375082 23.8062397,17.0877377 C23.8104345,17.6445902 23.6714831,18.2116721 23.5330562,18.7580328 C23.2229064,19.9834754 22.8618951,21.1958033 22.5430936,22.4191475 C22.2326816,23.6099672 22.0677753,24.8125902 22.3189363,26.0430164 C22.5315581,27.0830164 23.0705843,27.8921967 23.9769139,28.4456393 C26.4017453,29.9265574 30.1668015,29.1412459 31.6677378,26.7464918 C32.30403,25.7311475 32.6978127,24.5639344 33.2528315,23.3544918 C32.5798352,23.0552131 39.4537303,0.152393443 37.5514082,0.0792131148" id="Fill-7"></path>
                        <path d="M48.8063858,24.9408787 C48.2930524,25.7689443 47.62897,25.7539934 47.2309925,24.8871082 C46.5810674,23.4704525 46.0546255,21.9968787 45.4492697,20.4808131 C45.9240637,20.2130098 46.314176,20.0283541 46.6657491,19.7878295 C47.2703184,19.3734033 47.8942884,18.9799607 48.4972846,18.5623869 C49.1230899,18.1393049 49.7342135,17.6999607 50.2921161,17.2010754 C51.5673221,16.0614033 52.183427,14.5421902 52.0190449,12.7814033 C51.8384082,10.8485508 50.3631648,9.07753443 48.4451124,9.23491148 C48.7251124,12.4076328 45.0122285,15.7209443 45.0122285,15.7209443 C43.6342509,16.9815344 41.2455993,18.0294033 39.6612921,18.1419279 C41.0447753,12.157141 42.4274719,6.17366557 43.8366479,0.0771409836 L37.6428277,0.0771409836 L36.2564607,6.26730492 C34.6249625,13.3597639 32.9895318,20.4509115 31.3614419,27.5438951 C31.2707303,27.9391738 31.2371723,28.3473049 31.1705805,28.7934689 L37.3898315,28.7934689 C37.8247753,26.9558295 38.2864607,25.1866492 38.6493071,23.3970098 C38.8267978,22.522518 39.2142884,22.062977 40.3080712,22.1427148 C40.5146629,22.7284197 40.7115543,23.2999607 40.9176217,23.8678295 C41.2442884,24.7685508 41.5276966,25.6892066 41.9188577,26.5610754 C42.6382584,28.1663213 43.8958989,29.0888131 45.6736891,29.1853377 C47.493427,29.284223 49.0221536,28.7160918 50.0425281,27.102977 C50.7954869,25.9124197 51.3061985,24.6342557 51.5513296,23.1229115 C51.0214794,22.9198951 50.512603,22.7247475 49.9714794,22.5175344 C49.5622285,23.3857311 49.2596816,24.2098623 48.8063858,24.9408787" id="Fill-9"></path>
                    </g>
                </g>
            </g>
        </g>
    </g>
</svg>